<?xml version="1.0" encoding="utf-8"?>
<!-- Generator: Adobe Illustrator 26.5.0, SVG Export Plug-In . SVG Version: 6.00 Build 0)  -->
<svg version="1.1" id="Calque_1" xmlns="http://www.w3.org/2000/svg" xmlns:xlink="http://www.w3.org/1999/xlink" x="0px" y="0px"
	 viewBox="0 0 60 60" style="enable-background:new 0 0 60 60;" xml:space="preserve">
<style type="text/css">
	.st0{opacity:7.000000e-02;fill:#E52521;}
	.st1{fill:#E52521;}
</style>
<path class="st0" d="M59.1,59.9H0.9c-0.5,0-0.8-0.4-0.8-0.8V0.8C0,0.4,0.4,0,0.9,0h58.2C59.6,0,60,0.4,60,0.8v58.2
	C60,59.5,59.6,59.9,59.1,59.9z"/>
<path class="st1" d="M32.2,27.9c0,0,0.9-5.5-2.9-7.9c-0.1,1.9-1,3.7-2.5,4.9c-1.6,1.4-4.7,4.6-4.6,8.1c0,3,1.6,5.7,4.3,7.1
	c0.1-1.3,0.7-2.6,1.7-3.4c0.9-0.7,1.4-1.6,1.6-2.7c2.3,1.2,3.7,3.5,3.9,6.1v0c2.5-1.2,4.2-3.6,4.3-6.4c0.3-3.2-1.5-7.6-3.1-9
	C34.2,25.9,33.3,27,32.2,27.9z"/>
</svg>
