<?xml version="1.0" encoding="utf-8"?>
<!-- Generator: Adobe Illustrator 26.5.0, SVG Export Plug-In . SVG Version: 6.00 Build 0)  -->
<svg version="1.1" id="Calque_1" xmlns="http://www.w3.org/2000/svg" xmlns:xlink="http://www.w3.org/1999/xlink" x="0px" y="0px"
	 viewBox="0 0 60 60" style="enable-background:new 0 0 60 60;" xml:space="preserve">
<style type="text/css">
	.st0{opacity:7.000000e-02;fill:#FDCC13;}
	.st1{fill:#FDCC11;}
</style>
<path class="st0" d="M59.1,59.9H0.9c-0.5,0-0.8-0.4-0.8-0.8V0.8C0,0.4,0.4,0,0.9,0h58.2C59.6,0,60,0.4,60,0.8v58.2
	C60,59.5,59.6,59.9,59.1,59.9z"/>
<g>
	<path class="st1" d="M36.5,37.5c-0.8,1.2-1.8,2.5-3.2,2.5c-0.1,0-0.2,0-0.2,0c0,0,0,0,0,0c0,0-0.1,0-0.1,0c-1.2,0-1.5-0.7-3-0.8
		c-1.5,0.1-1.8,0.8-3,0.8c0,0-0.1,0-0.1,0h0c-0.1,0-0.2,0-0.2,0c-1.4,0-2.4-1.3-3.2-2.5c-2.2-3.3-2.4-7.2-1.1-9.2
		c1-1.5,2.5-2.3,3.9-2.3c0.1,0,0.1,0,0.2,0c0.1,0,0.1,0,0.2,0c1.6,0,2.3,0.7,3.3,0.8c1-0.1,1.8-0.8,3.3-0.8c0.1,0,0.1,0,0.2,0
		c0.1,0,0.1,0,0.2,0c1.4,0,2.9,0.9,3.9,2.3C38.9,30.3,38.7,34.2,36.5,37.5z"/>
	<path class="st1" d="M32.8,23.4c-0.7,0.9-2,1.7-3.2,1.6c-0.2-1.2,0.4-2.5,1-3.3c0.8-0.9,2.1-1.6,3.2-1.7
		C33.9,21.3,33.4,22.5,32.8,23.4z"/>
</g>
</svg>
