<?xml version="1.0" encoding="utf-8"?>
<!-- Generator: Adobe Illustrator 26.5.0, SVG Export Plug-In . SVG Version: 6.00 Build 0)  -->
<svg version="1.1" id="Calque_1" xmlns="http://www.w3.org/2000/svg" xmlns:xlink="http://www.w3.org/1999/xlink" x="0px" y="0px"
	 viewBox="0 0 60 60" style="enable-background:new 0 0 60 60;" xml:space="preserve">
<style type="text/css">
	.st0{opacity:7.000000e-02;fill:#EA5381;}
	.st1{fill:#EA5381;}
	.st2{fill-rule:evenodd;clip-rule:evenodd;fill:#EA5381;}
</style>
<path class="st0" d="M59.1,59.9H0.9c-0.5,0-0.8-0.4-0.8-0.8V0.8C0,0.4,0.4,0,0.9,0h58.2C59.6,0,60,0.4,60,0.8v58.2
	C60,59.5,59.6,59.9,59.1,59.9z"/>
<g>
	<path class="st1" d="M20.7,36c0,2.3,1.7,4,4,4h10.7c2.3,0,4-1.7,4-4H20.7z"/>
	<path class="st1" d="M39.3,33.3H20.7c-0.8,0-1.3-0.5-1.3-1.3s0.5-1.3,1.3-1.3h18.7c0.8,0,1.3,0.5,1.3,1.3S40.1,33.3,39.3,33.3z"/>
	<path class="st2" d="M31.3,20h-2.7c-4.4,0-8,3.6-8,8h18.7C39.3,23.6,35.7,20,31.3,20z M27.3,25.3c-0.8,0-1.3-0.5-1.3-1.3
		s0.5-1.3,1.3-1.3c0.8,0,1.3,0.5,1.3,1.3S28.1,25.3,27.3,25.3z M32.7,25.3c0,0.8,0.5,1.3,1.3,1.3s1.3-0.5,1.3-1.3
		c0-0.8-0.5-1.3-1.3-1.3S32.7,24.5,32.7,25.3z"/>
</g>
</svg>
