<?xml version="1.0" encoding="utf-8"?>
<!-- Generator: Adobe Illustrator 26.5.0, SVG Export Plug-In . SVG Version: 6.00 Build 0)  -->
<svg version="1.1" id="Calque_1" xmlns="http://www.w3.org/2000/svg" xmlns:xlink="http://www.w3.org/1999/xlink" x="0px" y="0px"
	 viewBox="0 0 60 60" style="enable-background:new 0 0 60 60;" xml:space="preserve">
<style type="text/css">
	.st0{opacity:7.000000e-02;fill:#60B1E4;}
	.st1{fill:#60B2E4;}
</style>
<path class="st0" d="M59.1,59.9H0.9c-0.5,0-0.8-0.4-0.8-0.8V0.8C0,0.4,0.4,0,0.9,0h58.2C59.6,0,60,0.4,60,0.8v58.2
	C60,59.5,59.6,59.9,59.1,59.9z"/>
<path class="st1" d="M39.4,22.5c-0.4-0.4-0.9-0.6-1.3-0.6c-0.1-0.5-0.3-0.9-0.6-1.3c-0.9-0.9-2.4-0.9-3.3,0c-0.8,0.8-0.9,2-0.3,2.9
	l-2.8,2.6l-1.4-1.4l-2.8,2.8c-0.3-0.1-0.6-0.1-0.9-0.1c-3.5,0-6.3,2.8-6.3,6.3c0,3.5,2.8,6.3,6.3,6.3c3.5,0,6.3-2.8,6.3-6.3
	c0-0.3,0-0.6-0.1-0.9l2.8-2.8l-1.4-1.4l2.6-2.6c0.9,0.6,2.1,0.5,2.9-0.3C40.3,24.9,40.3,23.4,39.4,22.5z"/>
</svg>
